<mxfile host="app.diagrams.net" modified="2023-03-30T09:39:36.011Z" agent="Mozilla/5.0 (Windows NT 10.0; Win64; x64) AppleWebKit/537.36 (KHTML, like Gecko) Chrome/111.0.0.0 Safari/537.36" etag="edy3m8qBVtbJEd75s__3" version="21.1.2" type="device">
  <diagram name="Pagina-1" id="4528BAbhL8LtrV0d9-yh">
    <mxGraphModel dx="1050" dy="573" grid="1" gridSize="10" guides="1" tooltips="1" connect="1" arrows="1" fold="1" page="1" pageScale="1" pageWidth="827" pageHeight="1169" math="0" shadow="0">
      <root>
        <mxCell id="0" />
        <mxCell id="1" parent="0" />
        <mxCell id="0mIt4XU1EKBfDCKsXpdT-22" value="&amp;lt;&amp;lt;Service&amp;gt;&amp;gt;&lt;br&gt;JabberPoint" style="shape=rect;html=1;verticalAlign=top;fontStyle=1;whiteSpace=wrap;align=center;" vertex="1" parent="1">
          <mxGeometry x="240" y="60" width="420" height="590" as="geometry" />
        </mxCell>
        <mxCell id="0mIt4XU1EKBfDCKsXpdT-1" value="Gebruiker" style="shape=umlActor;html=1;verticalLabelPosition=bottom;verticalAlign=top;align=center;fontColor=default;labelPosition=center;" vertex="1" parent="1">
          <mxGeometry x="120" y="430" width="30" height="60" as="geometry" />
        </mxCell>
        <mxCell id="0mIt4XU1EKBfDCKsXpdT-2" value="Openen van presentatie" style="ellipse;whiteSpace=wrap;html=1;" vertex="1" parent="1">
          <mxGeometry x="274" y="320" width="140" height="70" as="geometry" />
        </mxCell>
        <mxCell id="0mIt4XU1EKBfDCKsXpdT-4" value="Volgende slide laten zien" style="ellipse;whiteSpace=wrap;html=1;" vertex="1" parent="1">
          <mxGeometry x="490" y="102.5" width="140" height="70" as="geometry" />
        </mxCell>
        <mxCell id="0mIt4XU1EKBfDCKsXpdT-5" value="Vorige slide laten zien" style="ellipse;whiteSpace=wrap;html=1;" vertex="1" parent="1">
          <mxGeometry x="490" y="182.5" width="140" height="70" as="geometry" />
        </mxCell>
        <mxCell id="0mIt4XU1EKBfDCKsXpdT-6" value="Specifieke Slide laten zien" style="ellipse;whiteSpace=wrap;html=1;" vertex="1" parent="1">
          <mxGeometry x="490" y="267.5" width="140" height="70" as="geometry" />
        </mxCell>
        <mxCell id="0mIt4XU1EKBfDCKsXpdT-8" value="Jabberpoint afsluiten" style="ellipse;whiteSpace=wrap;html=1;" vertex="1" parent="1">
          <mxGeometry x="274" y="550" width="140" height="70" as="geometry" />
        </mxCell>
        <mxCell id="0mIt4XU1EKBfDCKsXpdT-9" value="Presentatie opslaan" style="ellipse;whiteSpace=wrap;html=1;" vertex="1" parent="1">
          <mxGeometry x="490" y="380" width="140" height="70" as="geometry" />
        </mxCell>
        <mxCell id="0mIt4XU1EKBfDCKsXpdT-10" value="Nieuwe presentatie maken" style="ellipse;whiteSpace=wrap;html=1;" vertex="1" parent="1">
          <mxGeometry x="274" y="450" width="140" height="70" as="geometry" />
        </mxCell>
        <mxCell id="0mIt4XU1EKBfDCKsXpdT-13" value="&amp;lt;&amp;lt;extend&amp;gt;&amp;gt;" style="edgeStyle=none;html=1;startArrow=open;endArrow=none;startSize=12;verticalAlign=bottom;dashed=1;labelBackgroundColor=none;rounded=0;" edge="1" parent="1" source="0mIt4XU1EKBfDCKsXpdT-2" target="0mIt4XU1EKBfDCKsXpdT-9">
          <mxGeometry width="160" relative="1" as="geometry">
            <mxPoint x="330" y="370" as="sourcePoint" />
            <mxPoint x="490" y="370" as="targetPoint" />
          </mxGeometry>
        </mxCell>
        <mxCell id="0mIt4XU1EKBfDCKsXpdT-14" value="&amp;lt;&amp;lt;extend&amp;gt;&amp;gt;" style="edgeStyle=none;html=1;startArrow=open;endArrow=none;startSize=12;verticalAlign=bottom;dashed=1;labelBackgroundColor=none;rounded=0;" edge="1" parent="1" source="0mIt4XU1EKBfDCKsXpdT-10" target="0mIt4XU1EKBfDCKsXpdT-9">
          <mxGeometry width="160" relative="1" as="geometry">
            <mxPoint x="330" y="370" as="sourcePoint" />
            <mxPoint x="490" y="370" as="targetPoint" />
          </mxGeometry>
        </mxCell>
        <mxCell id="0mIt4XU1EKBfDCKsXpdT-15" value="&amp;lt;&amp;lt;include&amp;gt;&amp;gt;" style="edgeStyle=none;html=1;endArrow=open;verticalAlign=bottom;dashed=1;labelBackgroundColor=none;rounded=0;" edge="1" parent="1" source="0mIt4XU1EKBfDCKsXpdT-4" target="0mIt4XU1EKBfDCKsXpdT-19">
          <mxGeometry width="160" relative="1" as="geometry">
            <mxPoint x="400" y="140" as="sourcePoint" />
            <mxPoint x="380" y="60" as="targetPoint" />
          </mxGeometry>
        </mxCell>
        <mxCell id="0mIt4XU1EKBfDCKsXpdT-16" value="&amp;lt;&amp;lt;include&amp;gt;&amp;gt;" style="edgeStyle=none;html=1;endArrow=open;verticalAlign=bottom;dashed=1;labelBackgroundColor=none;rounded=0;" edge="1" parent="1" source="0mIt4XU1EKBfDCKsXpdT-5" target="0mIt4XU1EKBfDCKsXpdT-19">
          <mxGeometry width="160" relative="1" as="geometry">
            <mxPoint x="330" y="340" as="sourcePoint" />
            <mxPoint x="490" y="340" as="targetPoint" />
          </mxGeometry>
        </mxCell>
        <mxCell id="0mIt4XU1EKBfDCKsXpdT-18" value="&amp;lt;&amp;lt;include&amp;gt;&amp;gt;" style="edgeStyle=none;html=1;endArrow=open;verticalAlign=bottom;dashed=1;labelBackgroundColor=none;rounded=0;" edge="1" parent="1" source="0mIt4XU1EKBfDCKsXpdT-6" target="0mIt4XU1EKBfDCKsXpdT-19">
          <mxGeometry width="160" relative="1" as="geometry">
            <mxPoint x="330" y="340" as="sourcePoint" />
            <mxPoint x="490" y="340" as="targetPoint" />
          </mxGeometry>
        </mxCell>
        <mxCell id="0mIt4XU1EKBfDCKsXpdT-19" value="Navigeren in presentatie" style="ellipse;whiteSpace=wrap;html=1;" vertex="1" parent="1">
          <mxGeometry x="274" y="185" width="140" height="70" as="geometry" />
        </mxCell>
        <mxCell id="0mIt4XU1EKBfDCKsXpdT-21" value="&amp;lt;&amp;lt;extend&amp;gt;&amp;gt;" style="edgeStyle=none;html=1;startArrow=open;endArrow=none;startSize=12;verticalAlign=bottom;dashed=1;labelBackgroundColor=none;rounded=0;" edge="1" parent="1" source="0mIt4XU1EKBfDCKsXpdT-2" target="0mIt4XU1EKBfDCKsXpdT-19">
          <mxGeometry width="160" relative="1" as="geometry">
            <mxPoint x="330" y="340" as="sourcePoint" />
            <mxPoint x="490" y="340" as="targetPoint" />
          </mxGeometry>
        </mxCell>
        <mxCell id="0mIt4XU1EKBfDCKsXpdT-23" value="" style="edgeStyle=none;html=1;endArrow=none;verticalAlign=bottom;rounded=0;" edge="1" parent="1" source="0mIt4XU1EKBfDCKsXpdT-1" target="0mIt4XU1EKBfDCKsXpdT-19">
          <mxGeometry width="160" relative="1" as="geometry">
            <mxPoint x="150" y="350" as="sourcePoint" />
            <mxPoint x="490" y="410" as="targetPoint" />
          </mxGeometry>
        </mxCell>
        <mxCell id="0mIt4XU1EKBfDCKsXpdT-24" value="" style="edgeStyle=none;html=1;endArrow=none;verticalAlign=bottom;rounded=0;" edge="1" parent="1" source="0mIt4XU1EKBfDCKsXpdT-1" target="0mIt4XU1EKBfDCKsXpdT-2">
          <mxGeometry width="160" relative="1" as="geometry">
            <mxPoint x="170" y="380" as="sourcePoint" />
            <mxPoint x="490" y="410" as="targetPoint" />
          </mxGeometry>
        </mxCell>
        <mxCell id="0mIt4XU1EKBfDCKsXpdT-26" value="" style="edgeStyle=none;html=1;endArrow=none;verticalAlign=bottom;rounded=0;" edge="1" parent="1" source="0mIt4XU1EKBfDCKsXpdT-10" target="0mIt4XU1EKBfDCKsXpdT-1">
          <mxGeometry width="160" relative="1" as="geometry">
            <mxPoint x="330" y="410" as="sourcePoint" />
            <mxPoint x="490" y="410" as="targetPoint" />
          </mxGeometry>
        </mxCell>
        <mxCell id="0mIt4XU1EKBfDCKsXpdT-27" value="" style="edgeStyle=none;html=1;endArrow=none;verticalAlign=bottom;rounded=0;" edge="1" parent="1" source="0mIt4XU1EKBfDCKsXpdT-8" target="0mIt4XU1EKBfDCKsXpdT-1">
          <mxGeometry width="160" relative="1" as="geometry">
            <mxPoint x="330" y="410" as="sourcePoint" />
            <mxPoint x="490" y="410" as="targetPoint" />
          </mxGeometry>
        </mxCell>
      </root>
    </mxGraphModel>
  </diagram>
</mxfile>
